<?xml version="1.0" standalone="no"?>
<!DOCTYPE svg PUBLIC "-//W3C//DTD SVG 20010904//EN"
 "http://www.w3.org/TR/2001/REC-SVG-20010904/DTD/svg10.dtd">
<svg version="1.0" xmlns="http://www.w3.org/2000/svg"
 width="472.000000pt" height="238.000000pt" viewBox="0 0 472.000000 238.000000"
 preserveAspectRatio="xMidYMid meet">

<g transform="translate(0.000000,238.000000) scale(0.100000,-0.100000)"
fill="#000000" stroke="none">
<path d="M930 1368 c-185 -65 -316 -208 -365 -398 -24 -91 -17 -227 14 -292
53 -111 174 -187 307 -196 216 -14 398 93 493 289 85 176 92 325 19 413 -102
124 -323 102 -471 -45 -118 -119 -152 -285 -80 -396 22 -35 68 -73 87 -73 3 0
6 33 6 73 0 147 65 322 155 414 47 49 55 53 96 53 95 0 121 -89 80 -265 -54
-227 -207 -415 -339 -415 -137 0 -242 186 -212 377 37 238 254 431 485 433
l50 1 -40 21 c-62 33 -199 36 -285 6z"/>
<path d="M3444 1343 c-35 -7 -66 -47 -67 -87 -2 -78 93 -117 148 -61 62 61 5
165 -81 148z"/>
<path d="M1990 1171 l-34 -158 -105 -6 c-127 -7 -187 -24 -258 -73 -167 -115
-218 -349 -94 -431 92 -62 240 7 346 162 21 30 40 53 43 51 2 -3 -1 -28 -7
-56 -22 -100 -14 -143 30 -165 62 -33 180 -3 238 59 l23 25 37 -39 c107 -113
323 -62 516 121 40 38 74 69 77 69 3 0 -5 -46 -18 -103 -33 -147 -36 -137 45
-137 l69 0 17 73 c37 148 112 294 166 322 50 27 93 16 116 -28 9 -17 12 -16
36 12 27 33 44 90 33 116 -3 8 -17 20 -31 27 -55 25 -143 -28 -221 -135 -24
-33 -44 -57 -44 -54 0 9 30 150 36 170 5 16 -1 18 -68 15 l-73 -3 -20 -93
c-20 -93 -20 -94 -93 -172 -115 -124 -260 -210 -355 -210 -18 0 -39 10 -58 29
-26 26 -29 36 -29 90 0 199 200 411 282 300 17 -23 18 -31 8 -69 -21 -78 -135
-178 -210 -183 -35 -2 -37 -8 -9 -33 52 -47 192 -5 264 79 130 152 50 297
-149 273 -167 -21 -322 -176 -333 -335 -6 -74 -23 -100 -86 -133 -48 -24 -67
-18 -67 22 0 16 32 177 70 356 39 180 70 339 70 353 0 39 -18 51 -75 51 l-52
0 -33 -159z m-50 -216 c0 -8 -11 -43 -24 -79 -54 -150 -176 -308 -248 -321
-21 -4 -45 -5 -53 -1 -45 17 -45 147 0 238 34 70 95 134 149 159 52 24 176 27
176 4z"/>
<path d="M4286 1313 c-3 -10 -30 -134 -60 -275 -61 -287 -61 -287 -165 -374
-172 -143 -327 -172 -361 -68 -34 101 61 318 161 370 64 33 129 4 129 -56 0
-38 -32 -104 -60 -123 -21 -14 -21 -14 2 -21 68 -18 126 4 152 58 61 130 -68
227 -244 182 -162 -42 -290 -188 -290 -333 0 -59 -1 -62 -38 -92 -60 -47 -90
-58 -109 -39 -14 15 -11 35 31 235 25 120 46 221 46 226 0 4 -31 7 -69 7 -67
0 -69 -1 -76 -27 -35 -142 -84 -407 -79 -433 19 -93 162 -95 273 -2 l35 29 28
-33 c95 -108 283 -77 476 79 45 37 82 63 82 59 0 -4 -9 -47 -20 -96 -11 -50
-20 -92 -20 -93 0 -2 32 -3 71 -1 l72 3 22 65 c69 203 197 390 266 390 40 0
41 -32 9 -187 -35 -169 -37 -222 -12 -253 19 -23 83 -37 126 -26 24 6 24 7 10
34 -19 36 -18 76 5 180 47 210 46 263 -4 296 -96 63 -223 -4 -320 -169 -21
-36 -39 -64 -41 -62 -2 1 21 117 51 257 30 140 55 260 55 267 0 26 -32 43 -80
43 -38 0 -50 -4 -54 -17z"/>
<path d="M1180 354 c-123 -70 -178 -215 -103 -274 30 -24 88 -26 136 -6 18 7
46 11 63 9 44 -7 94 37 94 83 0 61 -79 76 -124 23 -28 -33 -32 -50 -16 -78 8
-16 3 -20 -33 -30 -70 -20 -117 10 -117 73 0 87 107 216 180 216 32 0 22 -40
-17 -65 -31 -19 -44 -45 -23 -45 17 0 80 62 80 79 0 46 -53 53 -120 15z m150
-178 c0 -39 -39 -94 -58 -82 -28 17 5 116 39 116 15 0 19 -7 19 -34z"/>
<path d="M2605 354 c-73 -38 -118 -132 -96 -204 15 -51 62 -90 109 -90 25 0
44 -8 63 -26 17 -17 34 -24 44 -20 14 5 12 10 -12 31 l-28 26 23 16 c34 24 79
94 87 135 10 52 -11 106 -49 129 -38 23 -100 25 -141 3z m115 -4 c52 -28 46
-154 -11 -223 l-31 -37 -19 24 c-11 14 -28 28 -39 31 -25 8 -60 -11 -61 -33
-1 -32 -18 20 -18 58 -1 58 18 108 58 150 40 42 80 52 121 30z m-91 -241 c27
-26 16 -43 -23 -33 -19 4 -26 13 -26 30 0 30 19 31 49 3z"/>
<path d="M3251 308 c-6 -29 -19 -88 -28 -131 -14 -68 -15 -80 -2 -88 20 -12
24 -12 50 12 24 20 24 20 2 9 -29 -14 -29 -11 2 128 30 132 29 122 6 122 -15
0 -22 -11 -30 -52z"/>
<path d="M3581 323 c-5 -21 -12 -52 -16 -69 -5 -26 -10 -30 -33 -27 -33 5 -88
-28 -103 -61 -14 -30 -5 -72 17 -80 9 -4 32 3 50 13 19 11 34 16 34 11 0 -5 9
-14 19 -20 15 -7 24 -6 38 8 10 9 13 13 6 8 -8 -5 -16 -6 -20 -3 -4 5 31 165
53 240 4 12 0 17 -15 17 -15 0 -23 -10 -30 -37z m-35 -118 c8 -19 -24 -73 -53
-92 -20 -14 -23 -14 -29 1 -9 23 3 63 26 86 24 24 48 26 56 5z"/>
<path d="M3997 353 c-3 -5 -10 -33 -16 -64 -12 -56 -12 -56 -54 -62 -52 -7
-97 -52 -97 -97 0 -50 42 -58 88 -17 19 17 22 18 22 4 0 -28 35 -40 57 -19 10
9 13 13 6 8 -27 -18 -26 8 4 129 28 116 29 125 12 125 -10 0 -20 -3 -22 -7z
m-42 -143 c9 -15 -27 -80 -53 -98 -19 -13 -22 -12 -28 2 -19 50 55 138 81 96z"/>
<path d="M3363 323 c-16 -6 -17 -25 -2 -40 14 -14 39 -6 39 12 0 17 -22 33
-37 28z"/>
<path d="M1655 228 c-4 -13 -19 -36 -34 -53 l-26 -30 31 28 31 28 6 -29 c8
-41 -2 -72 -24 -72 -11 0 -19 5 -19 10 0 6 -7 10 -15 10 -24 0 -17 -29 8 -35
73 -19 122 59 70 111 -15 15 -15 17 0 26 19 10 14 28 -8 28 -7 0 -17 -10 -20
-22z"/>
<path d="M2263 222 c-12 -2 -36 -17 -52 -35 -36 -36 -41 -81 -12 -97 30 -16
41 -13 74 23 19 20 28 25 24 13 -8 -20 8 -46 28 -46 7 0 23 9 36 21 l24 20
-23 -11 c-13 -7 -26 -9 -29 -7 -4 5 11 68 24 103 4 11 -2 14 -24 12 -16 -1
-33 0 -38 3 -6 3 -20 3 -32 1z m42 -34 c-11 -34 -55 -90 -68 -85 -20 6 -20 39
-2 74 14 26 25 33 47 33 26 0 29 -3 23 -22z"/>
<path d="M3065 220 c-26 -10 -61 -49 -69 -77 -5 -15 -1 -28 13 -42 24 -24 47
-19 78 18 l23 26 0 -27 c0 -16 6 -29 13 -29 25 -3 42 3 57 18 13 14 13 14 -8
3 -13 -6 -25 -10 -27 -8 -3 2 2 26 10 53 19 62 19 65 -4 65 -11 0 -24 -12 -32
-31 -21 -51 -59 -91 -74 -79 -30 25 25 117 60 103 8 -3 15 0 15 6 0 13 -26 13
-55 1z"/>
<path d="M3682 213 c-32 -16 -62 -57 -62 -87 0 -8 10 -22 22 -30 24 -17 51 -8
80 28 l18 21 0 -27 c0 -14 6 -28 13 -31 12 -4 67 19 67 29 0 2 -9 0 -21 -6
-30 -17 -32 -8 -15 51 19 64 20 59 -4 59 -13 0 -25 -13 -38 -42 -23 -53 -52
-80 -71 -69 -31 20 29 118 63 105 9 -3 16 -1 16 5 0 16 -30 13 -68 -6z"/>
<path d="M4089 215 c-37 -20 -65 -76 -50 -103 6 -11 20 -23 31 -27 20 -6 90
21 90 36 0 4 -13 1 -28 -8 -28 -16 -69 -12 -58 6 4 5 19 12 35 16 16 3 39 17
51 30 23 24 23 25 5 45 -21 23 -40 25 -76 5z m58 -12 c7 -17 -37 -63 -62 -63
-17 0 -9 32 16 59 24 25 37 27 46 4z"/>
<path d="M1407 188 c-3 -18 -9 -48 -13 -65 -6 -28 -4 -33 13 -33 14 0 26 15
42 48 25 53 61 85 61 55 0 -10 -4 -34 -10 -52 -15 -53 14 -78 56 -46 18 13 18
14 -4 8 -21 -5 -22 -3 -15 23 4 16 7 43 8 59 0 24 -5 31 -25 34 -18 2 -32 -6
-52 -30 l-28 -33 9 32 c9 29 8 32 -13 32 -19 0 -25 -7 -29 -32z"/>
<path d="M1761 195 c-55 -47 -33 -124 33 -111 17 4 38 14 46 22 14 15 13 15
-7 5 -27 -14 -66 -14 -61 -1 2 5 23 20 48 32 35 18 45 28 45 48 0 21 -5 25
-36 28 -27 2 -44 -3 -68 -23z m79 -4 c0 -20 -35 -51 -57 -51 -17 0 -16 16 3
45 20 30 54 34 54 6z"/>
<path d="M1907 203 c-3 -10 -8 -31 -12 -48 -3 -16 -8 -38 -11 -47 -10 -34 32
-21 47 15 20 47 18 97 -3 97 -9 0 -19 -8 -21 -17z"/>
<path d="M1965 200 c-10 -11 -16 -22 -13 -25 3 -3 11 1 18 10 16 20 34 19 26
-1 -4 -11 -1 -14 12 -12 9 2 17 12 17 23 0 28 -37 31 -60 5z"/>
<path d="M2046 198 c-10 -41 -6 -95 8 -107 24 -20 68 11 99 67 31 58 32 62 12
62 -9 0 -15 -9 -15 -24 0 -29 -41 -91 -60 -91 -16 0 -19 28 -7 83 5 27 4 32
-12 32 -11 0 -21 -9 -25 -22z"/>
<path d="M2825 208 c-2 -7 -9 -33 -15 -57 -10 -39 -10 -47 5 -58 14 -10 23 -9
46 2 15 8 33 23 39 32 10 16 10 16 5 -3 -9 -35 17 -48 55 -29 18 9 29 19 26
22 -3 3 -12 0 -20 -6 -20 -17 -27 0 -16 40 15 50 12 69 -8 69 -11 0 -22 -12
-30 -34 -15 -42 -51 -88 -62 -81 -4 3 -2 29 6 58 7 28 14 53 14 55 0 9 -41 -1
-45 -10z"/>
<path d="M3336 205 c-3 -8 -8 -37 -12 -65 -5 -39 -3 -50 7 -51 27 -2 44 3 59
18 13 14 13 14 -9 3 -24 -12 -24 -12 -18 32 3 24 9 52 13 61 4 13 1 17 -14 17
-11 0 -22 -7 -26 -15z"/>
</g>
</svg>
